<?xml version="1.0" encoding="UTF-8" standalone="no"?>
<svg
   xmlns:dc="http://purl.org/dc/elements/1.1/"
   xmlns:cc="http://creativecommons.org/ns#"
   xmlns:rdf="http://www.w3.org/1999/02/22-rdf-syntax-ns#"
   xmlns:svg="http://www.w3.org/2000/svg"
   xmlns="http://www.w3.org/2000/svg"
   height="95"
   width="94.900002"
   id="svg975"
   xml:space="preserve"
   viewBox="0 0 94.900002 95"
   y="0px"
   x="0px"
   version="1.1"><metadata
     id="metadata981"><rdf:RDF><cc:Work
         rdf:about=""><dc:format>image/svg+xml</dc:format><dc:type
           rdf:resource="http://purl.org/dc/dcmitype/StillImage" /><dc:title></dc:title></cc:Work></rdf:RDF></metadata><defs
     id="defs979" /><g
     transform="translate(-2.5,-2.5)"
     style="fill:#ffffff;fill-opacity:1"
     id="g949"><path
       style="fill:#ffffff;fill-opacity:1"
       id="path941"
       d="M 5273.1,2400.1 V 2398.1 C 5273.1,2395.3 5268.1,2394.1 5263.4,2394.1 5258.7,2394.1 5253.7,2395.4 5253.7,2398.1 V 2400.1 C 5253.7,2401.9 5254.4,2403.7 5255.7,2405 L 5260.7,2409.9 C 5261,2410.2 5261.1,2410.5 5261.1,2410.9 V 2417.3 C 5261.1,2417.7 5261.3,2418 5261.7,2418.1 L 5264.6,2419 C 5265.1,2419.1 5265.6,2418.8 5265.6,2418.2 V 2411 C 5265.6,2410.6 5265.8,2410.3 5266,2410 L 5271.1,2405 C 5272.4,2403.7 5273.1,2401.9 5273.1,2400.1 Z M 5263.4,2400 C 5258.6,2400 5256,2398.7 5255.9,2398.2 V 2398.2 C 5256,2397.7 5258.6,2396.4 5263.4,2396.4 5268.2,2396.4 5270.7,2397.7 5270.9,2398.2 5270.7,2398.7 5268.2,2400 5263.4,2400 Z" /><path
       style="fill:#ffffff;fill-opacity:1"
       id="path943"
       d="M 5268.4,2410.3 C 5267.8,2410.3 5267.4,2410.7 5267.4,2411.3 5267.4,2411.9 5267.8,2412.3 5268.4,2412.3 H 5272.7 C 5273.3,2412.3 5273.7,2411.9 5273.7,2411.3 5273.7,2410.7 5273.3,2410.3 5272.7,2410.3 Z" /><path
       style="fill:#ffffff;fill-opacity:1"
       id="path945"
       d="M 5272.7,2413.7 H 5268.4 C 5267.8,2413.7 5267.4,2414.1 5267.4,2414.7 5267.4,2415.3 5267.8,2415.7 5268.4,2415.7 H 5272.7 C 5273.3,2415.7 5273.7,2415.3 5273.7,2414.7 5273.7,2414.1 5273.3,2413.7 5272.7,2413.7 Z" /><path
       style="fill:#ffffff;fill-opacity:1"
       id="path947"
       d="M 5272.7,2417 H 5268.4 C 5267.8,2417 5267.4,2417.4 5267.4,2418 5267.4,2418.6 5267.8,2419 5268.4,2419 H 5272.7 C 5273.3,2419 5273.7,2418.6 5273.7,2418 5273.7,2417.5 5273.3,2417 5272.7,2417 Z" /></g><g
     transform="translate(-2.5,-2.5)"
     style="fill:#ffffff;fill-opacity:1"
     id="g965"><path
       style="fill:#ffffff;fill-opacity:1"
       id="path951"
       d="M 35.2,57.8 4,88.9 C 2,90.9 2,94 4,96 6,98 9.1,98 11.1,96 L 42.2,64.9 40.8,59.2 Z" /><path
       style="fill:#ffffff;fill-opacity:1"
       id="path953"
       d="M 72.8,31.5 C 73.9,31.5 75,31.1 75.8,30.2 L 84.1,21.9 C 85.8,20.2 85.8,17.5 84.1,15.9 82.4,14.2 79.7,14.2 78,15.9 L 69.7,24.2 C 68,25.9 68,28.6 69.7,30.2 70.6,31.1 71.7,31.5 72.8,31.5 Z" /><path
       style="fill:#ffffff;fill-opacity:1"
       id="path955"
       d="M 51.9,22.8 C 54.3,22.8 56.2,20.9 56.2,18.5 V 6.8 C 56.2,4.4 54.3,2.5 51.9,2.5 49.5,2.5 47.6,4.4 47.6,6.8 V 18.5 C 47.6,20.9 49.5,22.8 51.9,22.8 Z" /><path
       style="fill:#ffffff;fill-opacity:1"
       id="path957"
       d="M 27.8,30.2 C 28.6,31 29.7,31.5 30.8,31.5 31.9,31.5 33,31.1 33.8,30.2 35.5,28.5 35.5,25.8 33.8,24.2 L 25.5,15.9 C 23.8,14.2 21.1,14.2 19.4,15.9 17.7,17.6 17.7,20.3 19.4,21.9 Z" /><path
       style="fill:#ffffff;fill-opacity:1"
       id="path959"
       d="M 75.7,66.2 C 74,64.5 71.3,64.5 69.6,66.2 67.9,67.9 67.9,70.6 69.6,72.2 L 77.9,80.5 C 78.7,81.3 79.8,81.8 80.9,81.8 82,81.8 83.1,81.4 83.9,80.5 85.6,78.8 85.6,76.1 83.9,74.5 Z" /><path
       style="fill:#ffffff;fill-opacity:1"
       id="path961"
       d="M 93.2,44 H 81.4 C 79,44 77.1,45.9 77.1,48.3 77.1,50.7 79,52.6 81.4,52.6 H 93.1 C 95.5,52.6 97.4,50.7 97.4,48.3 97.4,45.9 95.5,44 93.2,44 Z" /><path
       style="fill:#ffffff;fill-opacity:1"
       id="path963"
       d="M 68.1,53.4 62.7,47 C 62.2,46.4 62.1,45.6 62.4,44.9 L 65.6,37.2 C 66.3,35.5 64.6,33.8 62.9,34.5 L 55.2,37.7 C 54.5,38 53.7,37.9 53.1,37.4 L 46.6,32 C 45.2,30.8 43.1,31.9 43.2,33.7 L 43.8,42 C 43.9,42.8 43.5,43.5 42.8,43.9 L 35.7,48.3 C 34.2,49.3 34.5,51.6 36.3,52 L 44.4,54 C 45.1,54.2 45.7,54.8 45.9,55.5 L 47.9,63.6 C 48.3,65.4 50.7,65.7 51.6,64.2 L 56,57.1 C 56.4,56.5 57.1,56.1 57.9,56.1 L 66.2,56.7 C 68.2,56.9 69.3,54.8 68.1,53.4 Z" /></g></svg>
