<?xml version="1.0" encoding="UTF-8" standalone="no"?>
<svg
   xmlns:dc="http://purl.org/dc/elements/1.1/"
   xmlns:cc="http://creativecommons.org/ns#"
   xmlns:rdf="http://www.w3.org/1999/02/22-rdf-syntax-ns#"
   xmlns:svg="http://www.w3.org/2000/svg"
   xmlns="http://www.w3.org/2000/svg"
   height="72"
   width="66"
   id="svg859"
   xml:space="preserve"
   enable-background="new 0 0 100 100"
   viewBox="0 0 66 72"
   y="0px"
   x="0px"
   version="1.1"><metadata
     id="metadata865"><rdf:RDF><cc:Work
         rdf:about=""><dc:format>image/svg+xml</dc:format><dc:type
           rdf:resource="http://purl.org/dc/dcmitype/StillImage" /><dc:title></dc:title></cc:Work></rdf:RDF></metadata><defs
     id="defs863" /><g
     style="fill:#ff8080"
     transform="translate(-17,-13)"
     id="g853"><path
       style="fill:#ff8080"
       id="path851"
       d="M 20,31.077 H 25.011 C 25.011,31.141 25.003,31.205 25.009,31.269 L 30.009,83.192 C 30.108,84.217 30.97,85 32,85 H 68 C 69.03,85 69.892,84.217 69.991,83.192 L 74.991,31.269 C 74.997,31.205 74.989,31.141 74.989,31.077 H 80 C 81.657,31.077 83,29.734 83,28.077 83,26.42 81.657,25.077 80,25.077 H 64.077 V 16 C 64.077,14.343 62.734,13 61.077,13 H 38.923 C 37.266,13 35.923,14.343 35.923,16 V 25.077 H 20 C 18.343,25.077 17,26.42 17,28.077 17,29.734 18.343,31.077 20,31.077 Z M 52,73 C 52,74.104 51.104,75 50,75 48.896,75 48,74.104 48,73 V 42.154 C 48,41.05 48.896,40.154 50,40.154 51.104,40.154 52,41.05 52,42.154 Z M 60.13,40.158 C 61.232,40.229 62.068,41.181 61.996,42.283 L 59.996,73.129 C 59.927,74.188 59.048,75 58.002,75 57.958,75 57.915,74.999 57.87,74.996 56.768,74.925 55.932,73.973 56.004,72.871 L 58.004,42.025 C 58.076,40.922 59.024,40.092 60.13,40.158 Z M 41.923,19 H 58.077 V 25.077 H 41.923 Z M 39.87,40.158 C 40.994,40.092 41.924,40.922 41.996,42.024 L 43.996,72.87 C 44.067,73.972 43.231,74.924 42.13,74.995 42.085,74.999 42.042,75 41.998,75 40.952,75 40.073,74.187 40.004,73.129 L 38.004,42.283 C 37.933,41.181 38.769,40.229 39.87,40.158 Z" /></g></svg>
