<?xml version="1.0" encoding="UTF-8" standalone="no"?>
<svg
   xmlns:dc="http://purl.org/dc/elements/1.1/"
   xmlns:cc="http://creativecommons.org/ns#"
   xmlns:rdf="http://www.w3.org/1999/02/22-rdf-syntax-ns#"
   xmlns:svg="http://www.w3.org/2000/svg"
   xmlns="http://www.w3.org/2000/svg"
   width="20.221865mm"
   height="297.00003mm"
   viewBox="0 0 20.221865 297.00003"
   version="1.1"
   id="svg8">
  <defs
     id="defs2" />
  <metadata
     id="metadata5">
    <rdf:RDF>
      <cc:Work
         rdf:about="">
        <dc:format>image/svg+xml</dc:format>
        <dc:type
           rdf:resource="http://purl.org/dc/dcmitype/StillImage" />
        <dc:title></dc:title>
      </cc:Work>
    </rdf:RDF>
  </metadata>
  <g
     id="layer1">
    <path
       style="fill:#aa0088;stroke:none;stroke-width:0.49227;stroke-linecap:round;stroke-dashoffset:32.991"
       id="path835"
       d="m 157.4326,205.76721 -110.067316,0 55.033656,-95.32109 z"
       transform="matrix(1,0,0,1.1555214,-436.38177,-113.5316)" />
    <path
       transform="matrix(0.1837227,0,0,0.21229551,-8.7020778,253.31658)"
       d="m 157.4326,205.76721 -110.067316,0 55.033656,-95.32109 z"
       id="path835-0"
       style="fill:#000000;stroke:none;stroke-width:2.67942;stroke-linecap:round;stroke-dashoffset:32.991" />
    <path
       style="fill:#000000;stroke:none;stroke-width:2.67942;stroke-linecap:round;stroke-dashoffset:32.991"
       id="path835-0-9"
       d="m 157.4326,205.76721 -110.067316,0 55.033656,-95.32109 z"
       transform="matrix(0.1837227,0,0,0.21229552,-8.7020778,225.6402)" />
    <path
       style="fill:#000000;stroke:none;stroke-width:2.67942;stroke-linecap:round;stroke-dashoffset:32.991"
       id="path835-0-99"
       d="m 157.4326,205.76721 -110.067316,0 55.033656,-95.32109 z"
       transform="matrix(0.1837227,0,0,0.21229552,-8.7020778,197.96382)" />
    <path
       style="fill:#000000;stroke:none;stroke-width:2.67942;stroke-linecap:round;stroke-dashoffset:32.991"
       id="path835-0-8"
       d="m 157.4326,205.76721 -110.067316,0 55.033656,-95.32109 z"
       transform="matrix(0.1837227,0,0,0.21229552,-8.7020778,170.28744)" />
    <path
       style="fill:#000000;stroke:none;stroke-width:2.67942;stroke-linecap:round;stroke-dashoffset:32.991"
       id="path835-0-7"
       d="m 157.4326,205.76721 -110.067316,0 55.033656,-95.32109 z"
       transform="matrix(0.1837227,0,0,0.21229552,-8.7020778,142.61106)" />
    <path
       style="fill:#000000;stroke:none;stroke-width:2.67942;stroke-linecap:round;stroke-dashoffset:32.991"
       id="path835-0-4"
       d="m 157.4326,205.76721 -110.067316,0 55.033656,-95.32109 z"
       transform="matrix(0.1837227,0,0,0.21229552,-8.7020778,114.93468)" />
    <path
       style="fill:#000000;stroke:none;stroke-width:2.67942;stroke-linecap:round;stroke-dashoffset:32.991"
       id="path835-0-3"
       d="m 157.4326,205.76721 -110.067316,0 55.033656,-95.32109 z"
       transform="matrix(0.1837227,0,0,0.21229552,-8.7020778,87.2583)" />
    <path
       style="fill:#000000;stroke:none;stroke-width:2.67942;stroke-linecap:round;stroke-dashoffset:32.991"
       id="path835-0-74"
       d="m 157.4326,205.76721 -110.067316,0 55.033656,-95.32109 z"
       transform="matrix(0.1837227,0,0,0.21229552,-8.7020778,59.581921)" />
    <path
       transform="matrix(0.1837227,0,0,0.21229552,-8.7020778,31.905542)"
       d="m 157.4326,205.76721 -110.067316,0 55.033656,-95.32109 z"
       id="path835-0-74-4"
       style="fill:#000000;stroke:none;stroke-width:2.67942;stroke-linecap:round;stroke-dashoffset:32.991" />
    <path
       transform="matrix(0.1837227,0,0,0.21229552,-8.7020778,4.2291624)"
       d="m 157.4326,205.76721 -110.067316,0 55.033656,-95.32109 z"
       id="path835-0-74-43"
       style="fill:#000000;stroke:none;stroke-width:2.67942;stroke-linecap:round;stroke-dashoffset:32.991" />
    <path
       transform="matrix(0.1837227,0,0,0.21229552,-8.7020778,-23.447217)"
       d="m 157.4326,205.76721 -110.067316,0 55.033656,-95.32109 z"
       id="path835-0-74-7"
       style="fill:#000000;stroke:none;stroke-width:2.67942;stroke-linecap:round;stroke-dashoffset:32.991" />
  </g>
</svg>
