<svg version="1.1" viewBox="0 0 20.222 297" xmlns="http://www.w3.org/2000/svg">
  <path transform="matrix(.18372 0 0 .2123 -8.7021 253.32)" d="m157.43 205.77h-110.07l55.034-95.321z"/>
  <path transform="matrix(.18372 0 0 .2123 -8.7021 225.64)" d="m157.43 205.77h-110.07l55.034-95.321z"/>
  <path transform="matrix(.18372 0 0 .2123 -8.7021 197.96)" d="m157.43 205.77h-110.07l55.034-95.321z"/>
  <path transform="matrix(.18372 0 0 .2123 -8.7021 170.29)" d="m157.43 205.77h-110.07l55.034-95.321z"/>
  <path transform="matrix(.18372 0 0 .2123 -8.7021 142.61)" d="m157.43 205.77h-110.07l55.034-95.321z"/>
  <path transform="matrix(.18372 0 0 .2123 -8.7021 114.93)" d="m157.43 205.77h-110.07l55.034-95.321z"/>
  <path transform="matrix(.18372 0 0 .2123 -8.7021 87.258)" d="m157.43 205.77h-110.07l55.034-95.321z"/>
  <path transform="matrix(.18372 0 0 .2123 -8.7021 59.582)" d="m157.43 205.77h-110.07l55.034-95.321z"/>
  <path transform="matrix(.18372 0 0 .2123 -8.7021 31.906)" d="m157.43 205.77h-110.07l55.034-95.321z"/>
  <path transform="matrix(.18372 0 0 .2123 -8.7021 4.2292)" d="m157.43 205.77h-110.07l55.034-95.321z"/>
  <path transform="matrix(.18372 0 0 .2123 -8.7021 -23.447)" d="m157.43 205.77h-110.07l55.034-95.321z"/>
</svg>
